<svg width="179" height="41" viewBox="0 0 179 41" fill="none" xmlns="http://www.w3.org/2000/svg">
<path d="M7.296 31V12.824H0.128V8.6H19.648V12.824H12.48V31H7.296ZM25.9573 31V8.6H31.1413V31H25.9573ZM39.9773 31V8.6H44.2653L53.8013 24.408H51.5293L60.9053 8.6H65.1613L65.2253 31H60.3613L60.3293 16.056H61.2253L53.7373 28.632H51.4013L43.7533 16.056H44.8413V31H39.9773ZM74.0597 31V8.6H85.0037C87.8197 8.6 89.9317 9.13333 91.3397 10.2C92.7691 11.2667 93.4837 12.6747 93.4837 14.424C93.4837 15.5973 93.1957 16.6213 92.6197 17.496C92.0437 18.3493 91.2544 19.0107 90.2517 19.48C89.2491 19.9493 88.0971 20.184 86.7957 20.184L87.4037 18.872C88.8117 18.872 90.0597 19.1067 91.1477 19.576C92.2357 20.024 93.0784 20.696 93.6757 21.592C94.2944 22.488 94.6037 23.5867 94.6037 24.888C94.6037 26.808 93.8464 28.312 92.3317 29.4C90.8171 30.4667 88.5877 31 85.6437 31H74.0597ZM79.2117 27.096H85.2597C86.6037 27.096 87.6171 26.8827 88.2997 26.456C89.0037 26.008 89.3557 25.304 89.3557 24.344C89.3557 23.4053 89.0037 22.712 88.2997 22.264C87.6171 21.7947 86.6037 21.56 85.2597 21.56H78.8277V17.784H84.3637C85.6224 17.784 86.5824 17.5707 87.2437 17.144C87.9264 16.696 88.2677 16.024 88.2677 15.128C88.2677 14.2533 87.9264 13.6027 87.2437 13.176C86.5824 12.728 85.6224 12.504 84.3637 12.504H79.2117V27.096ZM106.817 17.624H117.601V21.656H106.817V17.624ZM107.201 26.84H119.393V31H102.049V8.6H118.977V12.76H107.201V26.84ZM127.037 31V8.6H136.733C138.739 8.6 140.467 8.93067 141.917 9.592C143.368 10.232 144.488 11.16 145.277 12.376C146.067 13.592 146.461 15.0427 146.461 16.728C146.461 18.392 146.067 19.832 145.277 21.048C144.488 22.2427 143.368 23.16 141.917 23.8C140.467 24.44 138.739 24.76 136.733 24.76H129.917L132.221 22.488V31H127.037ZM141.277 31L135.677 22.872H141.213L146.877 31H141.277ZM132.221 23.064L129.917 20.632H136.445C138.045 20.632 139.24 20.2907 140.029 19.608C140.819 18.904 141.213 17.944 141.213 16.728C141.213 15.4907 140.819 14.5307 140.029 13.848C139.24 13.1653 138.045 12.824 136.445 12.824H129.917L132.221 10.36V23.064ZM151.144 31L161.128 8.6H166.248L176.264 31H170.824L162.632 11.224H164.68L156.456 31H151.144ZM156.136 26.2L157.512 22.264H169.032L170.44 26.2H156.136Z" fill="#0A1F3D"/>
<rect y="36" width="23" height="5" fill="#D96C3E"/>
</svg>
